name Walk1.mot
datacolumns 19
datarows 17
range 2.59900000 2.61500000
endheader

                time	   L_ground_force_vx	   L_ground_force_vy	   L_ground_force_vz	   L_ground_force_px	   L_ground_force_py	   L_ground_force_pz	   R_ground_force_vx	   R_ground_force_vy	   R_ground_force_vz	   R_ground_force_px	   R_ground_force_py	   R_ground_force_pz	   L_ground_torque_x	   L_ground_torque_y	   L_ground_torque_z	   R_ground_torque_x	   R_ground_torque_y	   R_ground_torque_z	
          2.59900000	         41.00811831	        174.39247640	         12.82608836	          0.24784531	          0.00000000	          0.07726187	          0.00000000	          0.00000000	          0.00000000	          0.00000000	          0.00000000	          0.00000000	          0.00000000	        -10.44092370	          0.00000000	          0.00000000	          0.00000000	          0.00000000	
          2.60000000	         37.93610861	        161.73140016	         12.67299952	          0.24932820	          0.00000000	          0.07704719	          0.00000000	          0.00000000	          0.00000000	          0.00000000	          0.00000000	          0.00000000	          0.00000000	         -9.87084245	          0.00000000	          0.00000000	          0.00000000	          0.00000000	
          2.60100000	         34.97417455	        149.09257952	         12.40550218	          0.25097797	          0.00000000	          0.07666470	          0.00000000	          0.00000000	          0.00000000	          0.00000000	          0.00000000	          0.00000000	          0.00000000	         -9.29221932	          0.00000000	          0.00000000	          0.00000000	          0.00000000	
          2.60200000	         32.12035711	        136.63948541	         12.02411377	          0.25297501	          0.00000000	          0.07613383	          0.00000000	          0.00000000	          0.00000000	          0.00000000	          0.00000000	          0.00000000	          0.00000000	         -8.71235422	          0.00000000	          0.00000000	          0.00000000	          0.00000000	
          2.60300000	         29.37217030	        124.53201390	         11.51523922	          0.25542993	          0.00000000	          0.07559184	          0.00000000	          0.00000000	          0.00000000	          0.00000000	          0.00000000	          0.00000000	          0.00000000	         -8.13618253	          0.00000000	          0.00000000	          0.00000000	          0.00000000	
          2.60400000	         26.74383158	        112.91953020	         10.89312422	          0.25827674	          0.00000000	          0.07522803	          0.00000000	          0.00000000	          0.00000000	          0.00000000	          0.00000000	          0.00000000	          0.00000000	         -7.57809040	          0.00000000	          0.00000000	          0.00000000	          0.00000000	
          2.60500000	         24.24922126	        101.93663216	         10.18322498	          0.26139436	          0.00000000	          0.07511453	          0.00000000	          0.00000000	          0.00000000	          0.00000000	          0.00000000	          0.00000000	          0.00000000	         -7.05051877	          0.00000000	          0.00000000	          0.00000000	          0.00000000	
          2.60600000	         21.89161472	         91.68350620	          9.39942328	          0.26479189	          0.00000000	          0.07511606	          0.00000000	          0.00000000	          0.00000000	          0.00000000	          0.00000000	          0.00000000	          0.00000000	         -6.55037327	          0.00000000	          0.00000000	          0.00000000	          0.00000000	
          2.60700000	         19.67007116	         82.23771645	          8.56379597	          0.26866308	          0.00000000	          0.07500351	          0.00000000	          0.00000000	          0.00000000	          0.00000000	          0.00000000	          0.00000000	          0.00000000	         -6.06604306	          0.00000000	          0.00000000	          0.00000000	          0.00000000	
          2.60800000	         17.56934433	         73.69179071	          7.70715921	          0.27335636	          0.00000000	          0.07460620	          0.00000000	          0.00000000	          0.00000000	          0.00000000	          0.00000000	          0.00000000	          0.00000000	         -5.58760085	          0.00000000	          0.00000000	          0.00000000	          0.00000000	
          2.60900000	         15.55310993	         66.15167818	          6.83684782	          0.27924547	          0.00000000	          0.07389251	          0.00000000	          0.00000000	          0.00000000	          0.00000000	          0.00000000	          0.00000000	          0.00000000	         -5.10806537	          0.00000000	          0.00000000	          0.00000000	          0.00000000	
          2.61000000	         13.58664818	         59.66943886	          5.93952173	          0.28647328	          0.00000000	          0.07299622	          0.00000000	          0.00000000	          0.00000000	          0.00000000	          0.00000000	          0.00000000	          0.00000000	         -4.62612131	          0.00000000	          0.00000000	          0.00000000	          0.00000000	
          2.61100000	         11.65133909	         54.19589108	          5.01791550	          0.29475732	          0.00000000	          0.07214345	          0.00000000	          0.00000000	          0.00000000	          0.00000000	          0.00000000	          0.00000000	          0.00000000	         -4.15040641	          0.00000000	          0.00000000	          0.00000000	          0.00000000	
          2.61200000	          9.73250621	         49.62664376	          4.09711312	          0.30351357	          0.00000000	          0.07153917	          0.00000000	          0.00000000	          0.00000000	          0.00000000	          0.00000000	          0.00000000	          0.00000000	         -3.69396312	          0.00000000	          0.00000000	          0.00000000	          0.00000000	
          2.61300000	          7.81878624	         45.84590834	          3.20068369	          0.31225652	          0.00000000	          0.07130998	          0.00000000	          0.00000000	          0.00000000	          0.00000000	          0.00000000	          0.00000000	          0.00000000	         -3.26453953	          0.00000000	          0.00000000	          0.00000000	          0.00000000	
          2.61400000	          5.91658272	         42.70943424	          2.34371968	          0.32083989	          0.00000000	          0.07149537	          0.00000000	          0.00000000	          0.00000000	          0.00000000	          0.00000000	          0.00000000	          0.00000000	         -2.86460305	          0.00000000	          0.00000000	          0.00000000	          0.00000000	
          2.61500000	          4.05062501	         40.05298254	          1.53832084	          0.32935758	          0.00000000	          0.07199638	          0.00000000	          0.00000000	          0.00000000	          0.00000000	          0.00000000	          0.00000000	          0.00000000	         -2.49556067	          0.00000000	          0.00000000	          0.00000000	          0.00000000	
